M48
;Layer_Color=9474304
;FILE_FORMAT=4:4
METRIC,LZ
;TYPE=PLATED
T1F00S00C0.2000
T2F00S00C0.3000
T3F00S00C0.6500
T4F00S00C0.9000
T5F00S00C1.4000
T6F00S00C2.3000
T7F00S00C3.2000
%
T01
X0049525Y0077525
Y0078475
X0050475
Y0077525
T02
X002099Y001266
X0022514
X00091Y00315
X0020991Y00246578
X0022515
X0022485Y0053803
X0020961
X0039536Y0051904
X004233Y0053682
X0044958Y0052832
X004275Y0050375
Y0049625
X00428Y0047125
Y0046375
X00479Y00471
X005Y005
X005785Y005005
X00583803Y00495197
X005825Y0047
X00575783Y00463283
X0057658Y0053682
X0054737Y0058166
X0053213
X0051689
X0051904Y0042446
X0046025Y004165
X00465553Y00411197
X006155Y0048125
X00538Y00754
X00522Y00766
X00505Y00754
X00495625
X00479Y00766
X004715Y007455
X004475Y007495
X00335Y00816
X0030988Y0080772
X0029518Y008236
X0031496Y008382
X0032004Y0064516
X00573Y00821
T03
X0003595Y0018845
Y0020115
Y0021385
Y0022655
Y0023925
X00055Y0022655
Y0020115
X0007405Y0021385
Y0023925
Y0018845
Y0026465
Y0029005
Y0031545
Y0034085
Y0036625
Y0039165
Y0041705
Y0044245
Y0046785
Y0049325
Y0051865
Y0054405
Y0056945
Y0059485
Y0062025
X00055Y0063295
X0003595
Y0062025
Y0060755
Y0059485
Y0058215
Y0056945
Y0055675
Y0054405
Y0053135
Y0051865
Y0050595
Y0049325
Y0048055
Y0046785
Y0045515
Y0044245
Y0042975
Y0041705
Y0040435
Y0039165
Y0037895
Y0036625
Y0035355
Y0034085
Y0032815
Y0031545
Y0030275
Y0029005
Y0027735
Y0026465
Y0025195
X00055
Y0027735
Y0030275
Y0032815
Y0035355
Y0037895
Y0040435
Y0042975
Y0045515
Y0048055
Y0050595
Y0053135
Y0055675
Y0058215
Y0060755
Y0065835
X0003595
Y0067105
Y0068375
Y0069645
Y0070915
Y0072185
Y0073455
Y0074725
Y0075995
Y0077265
Y0078535
Y0079805
Y0081075
X00055
Y0078535
Y0075995
Y0073455
Y0070915
Y0068375
X0007405Y0069645
Y0072185
Y0074725
Y0077265
Y0079805
Y0067105
Y0064565
X0003595
T04
X0014732Y0016684
X0017272
X0017173Y00286358
X0014633
X0014857Y0057827
X0017397
X0048514Y0063754
X0051054
X0074422
X0076962
X0080278Y0067984
X0082818
X0085358
X007071
X006817
X006563
X005969Y0068072
Y0070612
Y0085344
Y0087884
X0055372
X0052832
X0045974
X0043434
X0039116
Y0085344
X0039624Y0070612
X0042164
X0044704
Y0068072
X0042164
X0039624
X005461
X005715
Y0070612
X005461
X0029464Y0076454
Y0078994
X0026924
Y0076454
X0024384
Y0078994
T05
X006229Y0091318
Y0096398
X005975Y0093858
X005721Y0096398
Y0091318
X004175
X003921Y0093858
X003667Y0091318
Y0096398
X004175
X0022
X001946Y0093858
X0022Y0091318
X001692
Y0096398
T06
X00055Y00144
Y008552
T07
X0095Y0005
X0005
X0095Y0095
X0005Y0095
M30
